<?xml version="1.0" encoding="UTF-8" standalone="no"?>
<!-- Created with Inkscape (http://www.inkscape.org/) -->

<svg
   xmlns:dc="http://purl.org/dc/elements/1.1/"
   xmlns:cc="http://creativecommons.org/ns#"
   xmlns:rdf="http://www.w3.org/1999/02/22-rdf-syntax-ns#"
   xmlns:svg="http://www.w3.org/2000/svg"
   xmlns="http://www.w3.org/2000/svg"
   xmlns:xlink="http://www.w3.org/1999/xlink"
   xmlns:sodipodi="http://sodipodi.sourceforge.net/DTD/sodipodi-0.dtd"
   xmlns:inkscape="http://www.inkscape.org/namespaces/inkscape"
   version="1.1"
   width="538.58264"
   height="314.29132"
   id="svg12609"
   inkscape:version="0.48.4 r9939"
   sodipodi:docname="Hafen_Hamburg_Logo.svg">
  <sodipodi:namedview
     pagecolor="#ffffff"
     bordercolor="#666666"
     borderopacity="1"
     objecttolerance="10"
     gridtolerance="10"
     guidetolerance="10"
     inkscape:pageopacity="0"
     inkscape:pageshadow="2"
     inkscape:window-width="1600"
     inkscape:window-height="876"
     id="namedview25"
     showgrid="false"
     inkscape:zoom="1.5334707"
     inkscape:cx="242.15146"
     inkscape:cy="176.40287"
     inkscape:window-x="0"
     inkscape:window-y="24"
     inkscape:window-maximized="1"
     inkscape:current-layer="svg12609" />
  <defs
     id="defs12611">
    <radialGradient
       id="SVGID_6_"
       cx="128.46581"
       cy="395.99509"
       r="28.153"
       gradientUnits="userSpaceOnUse">
      <stop
         offset="0"
         style="stop-color:#FFFFFF;stop-opacity:0.1"
         id="stop128" />
      <stop
         offset="0.0896"
         style="stop-color:#FFFFFF;stop-opacity:0.091"
         id="stop130" />
      <stop
         offset="1"
         style="stop-color:#FFFFFF;stop-opacity:0"
         id="stop132" />
    </radialGradient>
    <radialGradient
       id="SVGID_6_-6"
       cx="128.46581"
       cy="395.99509"
       r="28.153"
       gradientUnits="userSpaceOnUse">
      <stop
         offset="0"
         style="stop-color:#FFFFFF;stop-opacity:0.1"
         id="stop128-1" />
      <stop
         offset="0.0896"
         style="stop-color:#FFFFFF;stop-opacity:0.091"
         id="stop130-7" />
      <stop
         offset="1"
         style="stop-color:#FFFFFF;stop-opacity:0"
         id="stop132-0" />
    </radialGradient>
    <radialGradient
       id="SVGID_1_"
       cx="106.8687"
       cy="360.1709"
       r="80.393799"
       gradientUnits="userSpaceOnUse">
      <stop
         offset="0"
         style="stop-color:#FFCE4E"
         id="stop91" />
      <stop
         offset="1"
         style="stop-color:#F5C337"
         id="stop93" />
    </radialGradient>
    <radialGradient
       id="SVGID_2_"
       cx="106.8701"
       cy="360.17191"
       r="80.391998"
       gradientUnits="userSpaceOnUse">
      <stop
         offset="0"
         style="stop-color:#0DA960"
         id="stop98" />
      <stop
         offset="1"
         style="stop-color:#05924B"
         id="stop100" />
    </radialGradient>
    <radialGradient
       id="SVGID_3_"
       cx="106.8687"
       cy="360.17331"
       r="80.390297"
       gradientUnits="userSpaceOnUse">
      <stop
         offset="0"
         style="stop-color:#577EC0"
         id="stop105" />
      <stop
         offset="1"
         style="stop-color:#557EBF"
         id="stop107" />
    </radialGradient>
    <radialGradient
       id="SVGID_4_"
       cx="106.8711"
       cy="360.17331"
       r="80.385902"
       gradientUnits="userSpaceOnUse">
      <stop
         offset="0"
         style="stop-color:#E04B3F"
         id="stop112" />
      <stop
         offset="1"
         style="stop-color:#CD382D"
         id="stop114" />
    </radialGradient>
    <linearGradient
       id="SVGID_5_"
       gradientUnits="userSpaceOnUse"
       x1="141.16991"
       y1="404.8623"
       x2="121.8034"
       y2="404.8623">
      <stop
         offset="0"
         style="stop-color:#231F20;stop-opacity:0.2"
         id="stop119" />
      <stop
         offset="1"
         style="stop-color:#F2F2F2;stop-opacity:0.25"
         id="stop121" />
    </linearGradient>
    <radialGradient
       id="SVGID_6_-8"
       cx="128.46581"
       cy="395.99509"
       r="28.153"
       gradientUnits="userSpaceOnUse">
      <stop
         offset="0"
         style="stop-color:#FFFFFF;stop-opacity:0.1"
         id="stop128-4" />
      <stop
         offset="0.0896"
         style="stop-color:#FFFFFF;stop-opacity:0.091"
         id="stop130-9" />
      <stop
         offset="1"
         style="stop-color:#FFFFFF;stop-opacity:0"
         id="stop132-1" />
    </radialGradient>
    <radialGradient
       id="radialGradient3192"
       cx="128.46581"
       cy="395.99509"
       r="28.153"
       gradientUnits="userSpaceOnUse">
      <stop
         offset="0"
         style="stop-color:#FFFFFF;stop-opacity:0.1"
         id="stop3194" />
      <stop
         offset="0.0896"
         style="stop-color:#FFFFFF;stop-opacity:0.091"
         id="stop3196" />
      <stop
         offset="1"
         style="stop-color:#FFFFFF;stop-opacity:0"
         id="stop3198" />
    </radialGradient>
    <radialGradient
       r="28.153"
       cy="395.99509"
       cx="128.46581"
       gradientUnits="userSpaceOnUse"
       id="radialGradient3248"
       xlink:href="#SVGID_6_-8"
       inkscape:collect="always" />
    <radialGradient
       r="28.153"
       cy="395.99509"
       cx="128.46581"
       gradientUnits="userSpaceOnUse"
       id="radialGradient3250"
       xlink:href="#SVGID_6_-8"
       inkscape:collect="always" />
  </defs>
  <metadata
     id="metadata12614">
    <rdf:RDF>
      <cc:Work
         rdf:about="">
        <dc:format>image/svg+xml</dc:format>
        <dc:type
           rdf:resource="http://purl.org/dc/dcmitype/StillImage" />
        <dc:title></dc:title>
      </cc:Work>
    </rdf:RDF>
  </metadata>
  <g
     id="g13941"
     transform="matrix(4.979183,0,0,4.979183,-2101.153,-2723.9822)">
    <path
       inkscape:connector-curvature="0"
       style="fill:#5881ca;fill-opacity:1;fill-rule:nonzero;stroke:none"
       id="path7490"
       d="m 533.16056,595.20056 0.21125,-0.0588 0,2.1025 c -18.13,4.915 -31.22125,3.56125 -49.32375,0.0487 -15.6325,-3.035 -27.5225,-5.25375 -43.1725,-0.0263 l 0,-2.14 c 15.69,-5.10125 27.9325,-2.85625 43.5775,0.18 17.68375,3.4325 30.68,4.86 48.7075,-0.10625" />
    <path
       inkscape:connector-curvature="0"
       style="fill:#ed1c24;fill-opacity:1;fill-rule:nonzero;stroke:none"
       id="path7492"
       d="m 506.84181,595.80556 -0.0713,-6.64875 c 0,-1.99625 -1.65875,-3.61625 -3.70375,-3.61625 -2.04625,0 -3.70375,1.62 -3.70375,3.6175 l -0.0663,6.0275 c -3.98875,-0.46375 -7.86,-1.10875 -11.67125,-1.7925 1.63625,-4.41375 2.46375,-7.935 2.80625,-12.95 l 25.28375,0 c 0.36125,5.22375 1.56375,10.145 3.37875,15.04125 -4.25125,0.43 -8.32,0.49625 -12.2525,0.32125" />
    <path
       inkscape:connector-curvature="0"
       style="fill:#ed1c24;fill-opacity:1;fill-rule:nonzero;stroke:none"
       id="path7494"
       d="m 495.57181,565.74931 -1.34375,0 -0.67125,1.135 -0.67125,-1.135 -1.3425,0 0.67125,-1.13625 -0.67125,-1.135 1.3425,0 0.67125,-1.13625 0.67125,1.13625 1.34375,0 -0.6725,1.135 0.6725,1.13625" />
    <path
       inkscape:connector-curvature="0"
       style="fill:#ed1c24;fill-opacity:1;fill-rule:nonzero;stroke:none"
       id="path7496"
       d="m 514.60431,565.74931 -1.3425,0 -0.67125,1.135 -0.67125,-1.135 -1.3425,0 0.67125,-1.13625 -0.67125,-1.135 1.3425,0 0.67125,-1.13625 0.67125,1.13625 1.3425,0 -0.67125,1.135 0.67125,1.13625" />
    <path
       inkscape:connector-curvature="0"
       style="fill:#ed1c24;fill-opacity:1;fill-rule:nonzero;stroke:none"
       id="path7498"
       d="m 499.62056,566.23181 0,-0.115 c 0,-1.59125 1.14,-2.92 2.66125,-3.26625 l 0,-1.45125 -1.24875,0 0,-1.35375 1.24875,0 0,-1.3925 1.58375,0 0,1.3925 1.24875,0 0,1.35375 -1.24875,0 0,1.4475 c 1.62,0.35 2.57125,1.765 2.655,3.385 l 1.3375,0 0,1.7325 -1.5,0 0,9.275 3.24,0 0,-9.275 5.985,0 0,9.275 1.88625,0 0,1.79 -28.79,0 0,-1.79 1.885,0 0,-9.275 5.98625,0 0,9.275 3.23875,0 0,-9.275 -1.5,0 0,-1.7325 1.33125,0" />
    <g
       style="font-size:15px;fill:#1b3653;fill-opacity:1"
       id="text7500" />
  </g>
  <g
     transform="matrix(2.9756547,0,0,2.9756547,-265.10345,-1019.0025)"
     id="colorangle">
    <g
       id="g88">
      <radialGradient
         id="radialGradient3202"
         cx="106.8687"
         cy="360.1709"
         r="80.393799"
         gradientUnits="userSpaceOnUse">
        <stop
           offset="0"
           style="stop-color:#FFCE4E"
           id="stop3204" />
        <stop
           offset="1"
           style="stop-color:#F5C337"
           id="stop3206" />
      </radialGradient>
      <path
         inkscape:connector-curvature="0"
         style="fill:url(#SVGID_1_)"
         d="m 133.117,404.787 -15.423,25.619 h 7.789 c 1.844,0 4.134,-1.293 5.085,-2.881 l 6.562,-10.918 c 0.774,-1.602 0.748,-3.93 -0.138,-5.406 l -3.875,-6.414 z"
         id="path95" />
      <radialGradient
         id="radialGradient3209"
         cx="106.8701"
         cy="360.17191"
         r="80.391998"
         gradientUnits="userSpaceOnUse">
        <stop
           offset="0"
           style="stop-color:#0DA960"
           id="stop3211" />
        <stop
           offset="1"
           style="stop-color:#05924B"
           id="stop3213" />
      </radialGradient>
      <path
         inkscape:connector-curvature="0"
         style="fill:url(#SVGID_2_)"
         d="m 126.067,393.117 c 0.951,1.582 0.951,4.174 0,5.762 l -17.322,28.961 c -0.669,1.432 0.026,2.566 1.745,2.566 h 7.204 l 15.423,-25.619 -7.05,-11.67 z"
         id="path102" />
      <radialGradient
         id="radialGradient3216"
         cx="106.8687"
         cy="360.17331"
         r="80.390297"
         gradientUnits="userSpaceOnUse">
        <stop
           offset="0"
           style="stop-color:#577EC0"
           id="stop3218" />
        <stop
           offset="1"
           style="stop-color:#557EBF"
           id="stop3220" />
      </radialGradient>
      <path
         inkscape:connector-curvature="0"
         style="fill:url(#SVGID_3_)"
         d="m 110.49,361.584 c -1.851,0 -2.585,1.299 -1.634,2.881 l 28.136,46.736 c 0.886,1.477 0.912,3.805 0.138,5.406 l 6.84,-11.385 -26.271,-43.639 h -7.209 z"
         id="path109" />
      <radialGradient
         id="radialGradient3223"
         cx="106.8711"
         cy="360.17331"
         r="80.385902"
         gradientUnits="userSpaceOnUse">
        <stop
           offset="0"
           style="stop-color:#E04B3F"
           id="stop3225" />
        <stop
           offset="1"
           style="stop-color:#CD382D"
           id="stop3227" />
      </radialGradient>
      <path
         inkscape:connector-curvature="0"
         style="fill:url(#SVGID_4_)"
         d="m 147.778,393.117 -17.21,-28.652 c -0.951,-1.582 -3.241,-2.881 -5.085,-2.881 h -7.785 l 26.271,43.639 3.809,-6.344 c 0.952,-1.588 0.952,-4.18 0,-5.762 z"
         id="path116" />
      <linearGradient
         id="linearGradient3230"
         gradientUnits="userSpaceOnUse"
         x1="141.16991"
         y1="404.8623"
         x2="121.8034"
         y2="404.8623">
        <stop
           offset="0"
           style="stop-color:#231F20;stop-opacity:0.2"
           id="stop3232" />
        <stop
           offset="1"
           style="stop-color:#F2F2F2;stop-opacity:0.25"
           id="stop3234" />
      </linearGradient>
      <path
         inkscape:connector-curvature="0"
         style="fill:url(#SVGID_5_)"
         d="m 136.992,411.201 -10.925,-18.084 c 0.951,1.582 0.951,4.174 0,5.762 l -3.846,6.404 14.908,11.324 c 0.775,-1.601 0.749,-3.929 -0.137,-5.406 z"
         id="path123" />
    </g>
    <g
       id="g125">
      <radialGradient
         id="radialGradient3238"
         cx="128.46581"
         cy="395.99509"
         r="28.153"
         gradientUnits="userSpaceOnUse">
        <stop
           offset="0"
           style="stop-color:#FFFFFF;stop-opacity:0.1"
           id="stop3240" />
        <stop
           offset="0.0896"
           style="stop-color:#FFFFFF;stop-opacity:0.091"
           id="stop3242" />
        <stop
           offset="1"
           style="stop-color:#FFFFFF;stop-opacity:0"
           id="stop3244" />
      </radialGradient>
      <path
         inkscape:connector-curvature="0"
         style="fill:url(#radialGradient3248)"
         d="m 147.778,393.117 -17.21,-28.652 c -0.951,-1.582 -3.241,-2.881 -5.085,-2.881 h -7.785 -7.208 c -1.851,0 -2.585,1.299 -1.634,2.881 l 17.211,28.652 c 0.951,1.582 0.951,4.174 0,5.762 l -17.322,28.961 c -0.669,1.432 0.026,2.566 1.745,2.566 h 7.204 7.789 c 1.844,0 4.134,-1.293 5.085,-2.881 l 13.401,-22.303 3.809,-6.344 c 0.952,-1.587 0.952,-4.179 0,-5.761 z"
         id="path134" />
      <path
         inkscape:connector-curvature="0"
         id="path3161"
         d="m 147.778,393.117 -17.21,-28.652 c -0.951,-1.582 -3.241,-2.881 -5.085,-2.881 h -7.785 -7.208 c -1.851,0 -2.585,1.299 -1.634,2.881 l 17.211,28.652 c 0.951,1.582 0.951,4.174 0,5.762 l -17.322,28.961 c -0.669,1.432 0.026,2.566 1.745,2.566 h 7.204 7.789 c 1.844,0 4.134,-1.293 5.085,-2.881 l 13.401,-22.303 3.809,-6.344 c 0.952,-1.587 0.952,-4.179 0,-5.761 z"
         style="fill:url(#radialGradient3250)" />
    </g>
  </g>
  <g
     transform="matrix(0.64906169,0,0,0.64906169,88.107743,-6.0187451)"
     id="androd">
    <path
       style="fill:#9fbf3b"
       inkscape:connector-curvature="0"
       d="m 301.314,83.298 20.159,-29.272 c 1.197,-1.74 0.899,-4.024 -0.666,-5.104 -1.563,-1.074 -3.805,-0.543 -4.993,1.199 L 294.863,80.53 c -13.807,-5.439 -29.139,-8.47 -45.299,-8.47 -16.16,0 -31.496,3.028 -45.302,8.47 L 183.314,50.12 c -1.201,-1.74 -3.439,-2.273 -5.003,-1.199 -1.564,1.077 -1.861,3.362 -0.664,5.104 l 20.166,29.272 c -32.063,14.916 -54.548,43.26 -57.413,76.34 h 218.316 c -2.855,-33.08 -25.341,-61.423 -57.402,-76.339"
       id="path7" />
    <path
       style="fill:#ffffff"
       inkscape:connector-curvature="0"
       d="m 203.956,129.438 c -6.673,0 -12.08,-5.407 -12.08,-12.079 0,-6.671 5.404,-12.08 12.08,-12.08 6.668,0 12.073,5.407 12.073,12.08 0.001,6.671 -5.405,12.079 -12.073,12.079"
       id="path9" />
    <path
       style="fill:#ffffff"
       inkscape:connector-curvature="0"
       d="m 295.161,129.438 c -6.668,0 -12.074,-5.407 -12.074,-12.079 0,-6.673 5.406,-12.08 12.074,-12.08 6.675,0 12.079,5.409 12.079,12.08 0,6.671 -5.406,12.079 -12.079,12.079"
       id="path11" />
    <path
       style="fill:#9fbf3b"
       inkscape:connector-curvature="0"
       d="m 126.383,297.598 c 0,13.45 -10.904,24.354 -24.355,24.354 l 0,0 c -13.45,0 -24.354,-10.904 -24.354,-24.354 V 199.09 c 0,-13.45 10.904,-24.354 24.354,-24.354 l 0,0 c 13.451,0 24.355,10.904 24.355,24.354 v 98.508 z"
       id="path13" />
    <path
       style="fill:#9fbf3b"
       inkscape:connector-curvature="0"
       d="m 140.396,175.489 v 177.915 c 0,10.566 8.566,19.133 19.135,19.133 h 22.633 v 54.744 c 0,13.451 10.903,24.354 24.354,24.354 13.451,0 24.355,-10.903 24.355,-24.354 v -54.744 h 37.371 v 54.744 c 0,13.451 10.902,24.354 24.354,24.354 13.452,0 24.354,-10.903 24.354,-24.354 v -54.744 h 22.633 c 10.569,0 19.137,-8.562 19.137,-19.133 V 175.489 H 140.396 z"
       id="path15" />
    <path
       style="fill:#9fbf3b"
       inkscape:connector-curvature="0"
       d="m 372.734,297.598 c 0,13.45 10.903,24.354 24.354,24.354 l 0,0 c 13.45,0 24.354,-10.904 24.354,-24.354 V 199.09 c 0,-13.45 -10.904,-24.354 -24.354,-24.354 l 0,0 c -13.451,0 -24.354,10.904 -24.354,24.354 v 98.508 z"
       id="path17" />
  </g>
</svg>
